<svg xmlns="http://www.w3.org/2000/svg" xmlns:xlink="http://www.w3.org/1999/xlink" width="500" zoomAndPan="magnify" viewBox="0 0 375 374.999991" height="500" preserveAspectRatio="xMidYMid meet" version="1.0"><defs><g/></defs><rect x="-37.5" width="450" fill="#ffffff" y="-37.499999" height="449.999989" fill-opacity="1"/><rect x="-37.5" width="450" fill="#ffffff" y="-37.499999" height="449.999989" fill-opacity="1"/><g fill="#000000" fill-opacity="1"><g transform="translate(-2.511631, 236.324012)"><g><path d="M 10.78125 -5.890625 L 10.78125 -27.171875 L 10.5 -30.046875 L 10.640625 -41.703125 L 10.921875 -44.421875 L 10.640625 -47.15625 L 10.640625 -50.03125 L 10.5 -53.203125 L 10.921875 -58.953125 L 10.640625 -61.828125 L 10.5 -94.75 L 12.21875 -98.78125 L 14.8125 -100.21875 L 23.296875 -100.9375 L 26.453125 -100.796875 L 29.328125 -100.21875 L 32.203125 -100.21875 L 34.796875 -100.9375 L 37.671875 -100.9375 L 40.546875 -100.359375 L 49.171875 -100.359375 L 53.34375 -100.640625 L 57.9375 -100.5 L 66.140625 -98.640625 L 71.609375 -96.765625 L 76.640625 -94.03125 L 84.828125 -85.40625 L 86.40625 -83.109375 L 87.5625 -80.65625 L 90.15625 -72.46875 L 90.578125 -69.59375 L 90.875 -60.53125 L 89 -52.1875 L 83.390625 -42.125 L 81.375 -40.40625 L 79.375 -38.25 L 78.078125 -35.078125 L 78.21875 -31.625 L 79.9375 -29.46875 L 84.546875 -22 L 85.84375 -19.40625 L 90.71875 -12.078125 L 91.875 -9.34375 L 93.59375 -7.328125 L 95.1875 -4.171875 L 94.328125 -1 L 91.59375 0.28125 L 86.84375 0.4375 L 84.109375 0.140625 L 72.75 0.28125 L 67.859375 -1 L 64.703125 -3.59375 L 63.125 -6.03125 L 61.96875 -8.921875 L 60.390625 -11.078125 L 57.65625 -16.25 L 54.640625 -20.5625 L 53.484375 -23.15625 L 51.765625 -26.03125 L 48.890625 -28.46875 L 40.546875 -29.625 L 37.8125 -28.03125 L 36.515625 -25.15625 L 36.234375 -15.953125 L 36.671875 -12.9375 L 36.375 -10.359375 L 36.375 -5.46875 L 35.078125 -1.296875 L 30.484375 0.140625 L 26.171875 0.140625 L 23.875 0.4375 L 19.265625 0 L 16.390625 0.4375 L 12.21875 -1.4375 Z M 40.546875 -52.625 L 43.703125 -52.90625 L 50.609375 -52.625 L 53.34375 -52.765625 L 57.515625 -53.78125 L 60.09375 -54.921875 L 61.6875 -56.21875 L 63.265625 -58.375 L 64.5625 -61.25 L 64.984375 -65.5625 L 64.40625 -69.296875 L 63.546875 -71.609375 L 59.953125 -76.0625 L 57.21875 -76.78125 L 53.484375 -77.0625 L 49.453125 -77.921875 L 43.703125 -77.359375 L 40.828125 -77.5 L 37.8125 -76.34375 L 36.515625 -73.609375 L 36.234375 -67.578125 L 36.515625 -65.140625 L 36.515625 -56.5 L 37.671875 -54.203125 Z M 40.546875 -52.625 "/></g></g></g><g fill="#000000" fill-opacity="1"><g transform="translate(97.271327, 236.324012)"><g><path d="M 48.171875 0.578125 L 45.296875 -0.140625 L 38.25 -0.140625 L 33.9375 0.4375 L 28.1875 -0.140625 L 25.3125 0.140625 L 20.84375 0.28125 L 16.671875 -0.28125 L 13.953125 0 L 11.21875 0 L 8.34375 -1.296875 L 6.90625 -5.171875 L 7.328125 -18.40625 L 8.921875 -20.984375 L 18.40625 -23.875 L 19.984375 -28.1875 L 19.546875 -72.328125 L 18.265625 -76.203125 L 15.53125 -77.921875 L 12.65625 -77.921875 L 9.484375 -79.515625 L 7.90625 -82.390625 L 8.203125 -85.125 L 7.765625 -95.765625 L 9.203125 -99.203125 L 12.078125 -100.640625 L 15.390625 -100.640625 L 18.109375 -100.21875 L 29.90625 -100.21875 L 32.78125 -100.796875 L 35.375 -100.5 L 52.765625 -100.5 L 55.359375 -98.921875 L 57.078125 -96.1875 L 56.9375 -81.953125 L 55.5 -79.65625 L 52.484375 -78.5 L 49.609375 -78.078125 L 46.4375 -76.78125 L 45.4375 -73.46875 L 44.859375 -58.953125 L 45.4375 -48.59375 L 45.140625 -45.4375 L 45.296875 -29.625 L 44.859375 -26.890625 L 46.578125 -23.578125 L 50.03125 -22.4375 L 53.0625 -22.4375 L 56.21875 -20.84375 L 57.9375 -18.109375 L 57.9375 -3.875 L 56.5 -1.15625 L 53.921875 0.28125 Z M 48.171875 0.578125 "/></g></g></g><g fill="#000000" fill-opacity="1"><g transform="translate(162.5472, 236.324012)"><g><path d="M 38.671875 1.296875 L 32.78125 0.28125 L 27.171875 -1.71875 L 24.296875 -2.59375 L 21.5625 -3.875 L 19.546875 -6.03125 L 14.515625 -9.203125 L 12.65625 -11.359375 L 10.640625 -13.234375 L 7.90625 -18.546875 L 7.046875 -21.140625 L 6.46875 -24.015625 L 6.03125 -26.890625 L 7.1875 -29.90625 L 9.78125 -31.0625 L 20.84375 -31.625 L 23.578125 -31.203125 L 26.171875 -31.484375 L 29.046875 -30.34375 L 33.78125 -25.15625 L 36.234375 -23.578125 L 38.671875 -22.28125 L 46.015625 -21.5625 L 48.59375 -22 L 53.0625 -22.28125 L 57.9375 -24.4375 L 59.8125 -26.59375 L 60.96875 -30.1875 L 60.09375 -33.78125 L 58.234375 -35.515625 L 53.0625 -37.953125 L 30.484375 -40.546875 L 25.3125 -42.265625 L 15.53125 -47.59375 L 10.203125 -54.203125 L 7.90625 -59.234375 L 6.90625 -64.984375 L 6.75 -69.453125 L 7.1875 -76.484375 L 9.78125 -84.40625 L 14.8125 -91.15625 L 21.71875 -95.90625 L 26.59375 -98.78125 L 32.0625 -100.5 L 34.65625 -100.9375 L 37.53125 -101.078125 L 40.6875 -101.9375 L 51.765625 -101.65625 L 57.375 -100.5 L 65.421875 -97.765625 L 74.90625 -91.15625 L 78.078125 -86.84375 L 82.09375 -79.375 L 82.390625 -76.640625 L 82.96875 -73.90625 L 81.8125 -71.453125 L 79.078125 -69.453125 L 76.484375 -69.734375 L 73.609375 -69.734375 L 69.734375 -70.015625 L 62.96875 -69.453125 L 59.8125 -71.3125 L 57.65625 -74.1875 L 55.21875 -76.203125 L 52.625 -77.921875 L 50.03125 -78.640625 L 45.4375 -79.21875 L 40.828125 -79.078125 L 38.25 -78.5 L 35.9375 -77.203125 L 33.78125 -75.625 L 32.0625 -73.765625 L 31.34375 -69.875 L 31.921875 -65.5625 L 34.078125 -63.546875 L 39.390625 -60.96875 L 47.015625 -59.375 L 51.1875 -59.375 L 54.203125 -58.8125 L 57.078125 -58.65625 L 59.953125 -58.234375 L 71.171875 -54.78125 L 73.765625 -53.203125 L 76.0625 -52.046875 L 78.640625 -49.75 L 82.390625 -45.4375 L 83.96875 -43.140625 L 86.125 -34.796875 L 86.40625 -30.1875 L 85.546875 -23 L 84.6875 -20.5625 L 83.828125 -17.96875 L 82.25 -14.8125 L 80.8125 -12.796875 L 76.640625 -8.484375 L 66.859375 -2.59375 L 64.125 -1.296875 L 61.53125 -1 L 58.65625 0.140625 L 55.78125 0.578125 L 52.90625 1.296875 L 50.03125 1.578125 Z M 38.671875 1.296875 "/></g></g></g><g fill="#000000" fill-opacity="1"><g transform="translate(254.278511, 236.324012)"><g><path d="M 50.03125 0.4375 L 47.15625 0.140625 L 44.28125 0.4375 L 40.984375 0.28125 L 38.25 -0.28125 L 32.34375 0.140625 L 29.765625 0 L 26.59375 0.28125 L 16.25 0.140625 L 11.9375 -1.71875 L 10.78125 -5.609375 L 10.5 -8.765625 L 10.921875 -18.6875 L 10.5 -21.5625 L 10.78125 -24.296875 L 10.921875 -47.59375 L 10.5 -50.171875 L 10.640625 -61.96875 L 10.921875 -64.703125 L 10.5 -67.71875 L 10.78125 -81.8125 L 10.359375 -84.96875 L 10.78125 -90.875 L 10.5 -96.328125 L 12.078125 -99.359375 L 15.09375 -100.5 L 17.96875 -100.359375 L 20.84375 -100.640625 L 23.4375 -100.359375 L 26.171875 -100.9375 L 29.046875 -100.5 L 40.828125 -100.796875 L 43.703125 -100.5 L 46.15625 -100.640625 L 49.03125 -100.359375 L 52.1875 -100.640625 L 63.84375 -100.796875 L 66.421875 -100.21875 L 69.453125 -100.21875 L 72.328125 -99.0625 L 73.609375 -96.328125 L 73.90625 -87.703125 L 73.765625 -84.828125 L 73.90625 -81.953125 L 72.46875 -79.375 L 69.453125 -77.640625 L 66.71875 -77.5 L 46.15625 -77.78125 L 43.421875 -77.203125 L 40.6875 -77.359375 L 37.53125 -76.203125 L 36.234375 -73.46875 L 36.234375 -69.015625 L 37.390625 -64.5625 L 40.40625 -63.265625 L 48.734375 -63.546875 L 54.78125 -63.125 L 57.796875 -63.40625 L 66.28125 -63.40625 L 69.59375 -61.53125 L 71.03125 -57.515625 L 70.59375 -44.578125 L 69.59375 -41.703125 L 66.71875 -40.546875 L 63.40625 -40.6875 L 60.53125 -40.40625 L 54.640625 -40.546875 L 49.171875 -40.265625 L 44.578125 -40.6875 L 40.265625 -40.546875 L 37.671875 -38.96875 L 36.375 -35.9375 L 36.375 -26.890625 L 37.53125 -24.296875 L 40.546875 -22.859375 L 43.703125 -23.15625 L 46.4375 -22.71875 L 49.609375 -22.859375 L 52.484375 -22.578125 L 57.21875 -23.15625 L 64.5625 -23 L 67.296875 -22.578125 L 70.59375 -22.859375 L 73.609375 -21.5625 L 75.203125 -18.6875 L 75.203125 -4.171875 L 73.609375 -1.15625 L 70.59375 0.140625 Z M 50.03125 0.4375 "/></g></g></g><g fill="#000000" fill-opacity="1"><g transform="translate(336.66416, 236.324012)"><g><path d="M 18.109375 0.578125 L 16.671875 0.578125 L 14.8125 0.140625 L 13.515625 -0.28125 L 10.203125 -2.15625 L 9.484375 -3.3125 L 7.90625 -4.59375 L 7.046875 -5.75 L 6.328125 -7.328125 L 5.890625 -8.921875 L 5.75 -15.8125 L 6.46875 -17.390625 L 6.90625 -18.828125 L 9.203125 -21.28125 L 12.078125 -23.71875 L 13.234375 -24.296875 L 15.09375 -24.875 L 18.265625 -25.453125 L 21.5625 -25.59375 L 23.15625 -25.453125 L 25.015625 -24.734375 L 26.75 -24.4375 L 28.03125 -23.578125 L 29.625 -22.71875 L 30.625 -21.28125 L 31.625 -20.421875 L 32.640625 -18.984375 L 33.5 -17.109375 L 33.78125 -15.53125 L 34.359375 -13.796875 L 34.21875 -10.5 L 32.921875 -6.03125 L 31.921875 -4.59375 L 30.625 -3.15625 L 29.328125 -2.015625 L 28.1875 -1.4375 L 26.3125 -0.28125 L 24.734375 0.28125 L 23.296875 0.28125 L 21.71875 0.71875 Z M 18.109375 0.578125 "/></g></g></g></svg>